# xmcd CD Database Entry
#
# Track frame offsets:
# 182
# 20707
# 37882
# 58072
# 86032
# 100582
# 117232
# 130432
# 141382
# 155407
#
# Disc length: 2328 seconds
#
# Revision: 1
# Processed by: cddbd v1.4PL0 Copyright (c) Steve Scherf et al.
# Submitted via: tcd 2.0b
#
DISCID=8709160a
DTITLE=Third Degree - Taste And Try Before You Buy
DYEAR=1900
DGENRE=
TTITLE0=Can't You See What You Do To Me
TTITLE1=It's Alright
TTITLE2=Living A Life This Way
TTITLE3=Lovin' Cup
TTITLE4=Another Of My Kind
TTITLE5=Feels So Good
TTITLE6=Lets Take A Ride
TTITLE7=Jazzy Thing
TTITLE8=Dimples
TTITLE9=Taste And Try Before You Buy
EXTD=
EXTT0=
EXTT1=
EXTT2=
EXTT3=
EXTT4=
EXTT5=
EXTT6=
EXTT7=
EXTT8=
EXTT9=
PLAYORDER=
